<svg width="14" height="12" viewBox="0 0 14 12" fill="none" xmlns="http://www.w3.org/2000/svg">
<path d="M4.8125 5.98828C6.33145 5.98828 7.5625 4.70914 7.5625 3.13086C7.5625 1.55258 6.33145 0.273438 4.8125 0.273438C3.29356 0.273438 2.0625 1.55258 2.0625 3.13086C2.0625 4.70914 3.29356 5.98828 4.8125 5.98828ZM6.7375 6.70264H6.37871C5.90176 6.93034 5.37109 7.05981 4.8125 7.05981C4.25391 7.05981 3.72539 6.93034 3.24629 6.70264H2.8875C1.29336 6.70264 0 8.04652 0 9.70293V10.6316C0 11.2232 0.461914 11.7031 1.03125 11.7031H8.59375C9.16309 11.7031 9.625 11.2232 9.625 10.6316V9.70293C9.625 8.04652 8.33164 6.70264 6.7375 6.70264ZM13.677 3.83629L13.0797 3.20899C12.9809 3.10407 12.8197 3.10407 12.7188 3.20676L10.4672 5.52841L9.48965 4.50599C9.39082 4.40107 9.22969 4.40107 9.12871 4.50376L8.525 5.12659C8.42402 5.22928 8.42402 5.39671 8.52285 5.50163L10.2781 7.33886C10.377 7.44378 10.5381 7.44378 10.6391 7.34109L13.6748 4.21132C13.7736 4.1064 13.7758 3.93897 13.677 3.83629Z" fill="#DCBF85"/>
</svg>
