<svg width="25" height="25" viewBox="0 0 25 25" fill="none" xmlns="http://www.w3.org/2000/svg">
<path d="M19.0361 17.3865L24.033 22.3822L22.3821 24.033L17.3865 19.0362C15.5277 20.5263 13.2156 21.3367 10.8333 21.3333C5.03731 21.3333 0.333313 16.6293 0.333313 10.8333C0.333313 5.03733 5.03731 0.333328 10.8333 0.333328C16.6293 0.333328 21.3333 5.03733 21.3333 10.8333C21.3367 13.2157 20.5262 15.5277 19.0361 17.3865ZM16.6958 16.5208C18.1764 14.9982 19.0033 12.9572 19 10.8333C19 6.32066 15.3448 2.66666 10.8333 2.66666C6.32065 2.66666 2.66665 6.32066 2.66665 10.8333C2.66665 15.3448 6.32065 19 10.8333 19C12.9571 19.0033 14.9982 18.1765 16.5208 16.6958L16.6958 16.5208Z" fill="#484848"/>
</svg>
