<svg width="80" height="80" viewBox="0 0 80 80" fill="none" xmlns="http://www.w3.org/2000/svg">
<rect x="1" y="1" width="78" height="78" rx="39" stroke="#DCBF85" stroke-width="2"/>
<path d="M40 40C47.2594 40 53.1429 34.4043 53.1429 27.5C53.1429 20.5957 47.2594 15 40 15C32.7406 15 26.8571 20.5957 26.8571 27.5C26.8571 34.4043 32.7406 40 40 40ZM49.8366 43.1836L44.9286 61.875L41.6429 48.5938L44.9286 43.125H35.0714L38.3571 48.5938L35.0714 61.875L30.1634 43.1836C22.8424 43.5156 17 49.209 17 56.25V60.3125C17 62.9004 19.2076 65 21.9286 65H58.0714C60.7924 65 63 62.9004 63 60.3125V56.25C63 49.209 57.1576 43.5156 49.8366 43.1836Z" fill="#DCBF85"/>
</svg>
