<svg width="20" height="20" viewBox="0 0 20 20" fill="none" xmlns="http://www.w3.org/2000/svg">
<path d="M19.999 2.37422C19.25 2.78173 18.4556 3.04936 17.6423 3.16826C18.4996 2.53765 19.1412 1.5452 19.4476 0.375842C18.6431 0.964736 17.761 1.37744 16.8416 1.60069C16.2241 0.788042 15.4056 0.249089 14.5133 0.0676199C13.621 -0.113849 12.705 0.0723338 11.9076 0.597224C11.1103 1.12211 10.4762 1.9563 10.1041 2.9701C9.73199 3.9839 9.64261 5.12051 9.84988 6.20323C8.21832 6.10266 6.62219 5.58118 5.16512 4.67267C3.70805 3.76416 2.42261 2.48892 1.39227 0.92974C1.02756 1.70019 0.835906 2.57602 0.836931 3.46753C0.836931 5.21732 1.56103 6.76316 2.66189 7.66823C2.01041 7.643 1.37327 7.42661 0.803571 7.0371V7.09985C0.803768 8.26521 1.13164 9.39462 1.7316 10.2966C2.33156 11.1986 3.16668 11.8176 4.09537 12.0487C3.4906 12.2503 2.85646 12.28 2.24097 12.1356C2.50281 13.1387 3.01315 14.016 3.70054 14.6446C4.38793 15.2732 5.21794 15.6217 6.07437 15.6412C5.2232 16.4634 4.2486 17.0712 3.20632 17.4298C2.16403 17.7885 1.0745 17.8909 0 17.7313C1.87568 19.2149 4.05916 20.0026 6.28925 20C13.8373 20 17.9651 12.3094 17.9651 5.63968C17.9651 5.42247 17.9602 5.20284 17.9523 4.98804C18.7558 4.27384 19.4492 3.38912 20 2.37543L19.999 2.37422Z" fill="#DCBF85"/>
</svg>
