<svg width="30" height="30" viewBox="0 0 30 30" fill="none" xmlns="http://www.w3.org/2000/svg">
<circle cx="15" cy="15" r="15" fill="#343D57"/>
<path d="M18.3501 17.75C19.3857 17.75 20.2251 18.5894 20.2251 19.625C20.2251 20.6606 19.3857 21.5 18.3501 21.5C17.3145 21.5 16.4751 20.6606 16.4751 19.625C16.4751 18.5894 17.3145 17.75 18.3501 17.75ZM12.1001 15.25C13.4813 15.25 14.6001 16.3688 14.6001 17.75C14.6001 19.1313 13.4813 20.25 12.1001 20.25C10.7188 20.25 9.6001 19.1313 9.6001 17.75C9.6001 16.3688 10.7188 15.25 12.1001 15.25ZM17.4126 9C19.3113 9 20.8501 10.5387 20.8501 12.4375C20.8501 14.3363 19.3113 15.875 17.4126 15.875C15.5138 15.875 13.9751 14.3363 13.9751 12.4375C13.9751 10.5387 15.5138 9 17.4126 9Z" fill="white"/>
</svg>
