<svg width="30" height="30" viewBox="0 0 30 30" fill="none" xmlns="http://www.w3.org/2000/svg">
<circle cx="15" cy="15" r="15" fill="#343D57"/>
<path d="M9 15.8H12.4231C12.5301 17.7793 13.161 19.6946 14.2512 21.35C12.8856 21.1355 11.6295 20.4745 10.6794 19.4703C9.72927 18.4661 9.1387 17.1754 9 15.8ZM9 14.55C9.1387 13.1746 9.72927 11.8839 10.6794 10.8797C11.6295 9.87553 12.8856 9.21451 14.2512 9C13.161 10.6554 12.5301 12.5707 12.4231 14.55H9ZM21.4375 14.55H18.0144C17.9074 12.5707 17.2765 10.6554 16.1863 9C17.5519 9.21451 18.808 9.87553 19.7581 10.8797C20.7082 11.8839 21.2988 13.1746 21.4375 14.55ZM21.4375 15.8C21.2988 17.1754 20.7082 18.4661 19.7581 19.4703C18.808 20.4745 17.5519 21.1355 16.1863 21.35C17.2765 19.6946 17.9074 17.7793 18.0144 15.8H21.4375ZM13.675 15.8H16.7625C16.6596 17.4872 16.1283 19.1203 15.2188 20.545C14.3092 19.1203 13.7779 17.4872 13.675 15.8ZM13.675 14.55C13.7779 12.8628 14.3092 11.2297 15.2188 9.805C16.1283 11.2297 16.6596 12.8628 16.7625 14.55H13.675Z" fill="white"/>
</svg>
