<svg width="30" height="30" viewBox="0 0 30 30" fill="none" xmlns="http://www.w3.org/2000/svg">
<circle cx="15" cy="15" r="15" fill="white"/>
<path d="M16.7367 19.8713C16.7367 20.0448 16.5811 20.1856 16.3894 20.1856H13.6104C13.4187 20.1856 13.2631 20.0448 13.2631 19.8713C13.2631 19.6978 13.4187 19.557 13.6104 19.557H16.3894C16.5811 19.557 16.7367 19.6978 16.7367 19.8713ZM16.3894 20.3428H13.6104C13.3819 20.3428 13.2049 20.5425 13.2809 20.7595C13.3268 20.8904 13.4732 20.9713 13.625 20.9713H13.6302C13.8308 20.9713 14.0142 21.0739 14.104 21.2363L14.1077 21.2429C14.2287 21.4616 14.4759 21.5999 14.7463 21.5999H15.2535C15.5239 21.5999 15.7711 21.4616 15.8919 21.2429L15.8956 21.2363C15.9854 21.0739 16.1688 20.9713 16.3694 20.9713H16.3746C16.5264 20.9713 16.6728 20.8904 16.7187 20.7595C16.7949 20.5425 16.6179 20.3428 16.3894 20.3428ZM14.9999 10.2856C15.1916 10.2856 15.3473 10.1448 15.3473 9.97133V8.71419C15.3473 8.5407 15.1916 8.3999 14.9999 8.3999C14.8082 8.3999 14.6525 8.5407 14.6525 8.71419V9.97133C14.6525 10.1448 14.8082 10.2856 14.9999 10.2856ZM11.3155 11.4823C11.3833 11.5437 11.4722 11.5743 11.5611 11.5743C11.6501 11.5743 11.739 11.5437 11.8067 11.4823C11.9424 11.3595 11.9424 11.1606 11.8067 11.0379L10.8242 10.1489C10.6887 10.0262 10.4685 10.0262 10.333 10.1489C10.1974 10.2716 10.1974 10.4706 10.333 10.5933L11.3155 11.4823ZM10.4841 14.3713C10.4841 14.1978 10.3285 14.057 10.1367 14.057H8.74727C8.55552 14.057 8.3999 14.1978 8.3999 14.3713C8.3999 14.5448 8.55552 14.6856 8.74727 14.6856H10.1367C10.3285 14.6856 10.4841 14.5448 10.4841 14.3713ZM11.3155 17.2604L10.333 18.1494C10.1974 18.2721 10.1974 18.471 10.333 18.5938C10.4007 18.6552 10.4897 18.6858 10.5786 18.6858C10.6675 18.6858 10.7564 18.6552 10.8242 18.5938L11.8067 17.7048C11.9424 17.5821 11.9424 17.3831 11.8067 17.2604C11.6712 17.1377 11.451 17.1377 11.3155 17.2604ZM18.6843 17.2604C18.5486 17.1377 18.3287 17.1377 18.1931 17.2604C18.0574 17.3831 18.0574 17.5821 18.1931 17.7048L19.1756 18.5938C19.2435 18.6552 19.3323 18.6858 19.4212 18.6858C19.5101 18.6858 19.5989 18.6552 19.6668 18.5938C19.8024 18.471 19.8024 18.2721 19.6668 18.1494L18.6843 17.2604ZM21.2525 14.057H19.8631C19.6713 14.057 19.5157 14.1978 19.5157 14.3713C19.5157 14.5448 19.6713 14.6856 19.8631 14.6856H21.2525C21.4443 14.6856 21.5999 14.5448 21.5999 14.3713C21.5999 14.1978 21.4443 14.057 21.2525 14.057ZM18.4387 11.5743C18.5276 11.5743 18.6164 11.5437 18.6843 11.4823L19.6668 10.5933C19.8024 10.4706 19.8024 10.2716 19.6668 10.1489C19.5312 10.0262 19.3113 10.0262 19.1756 10.1489L18.1931 11.0379C18.0574 11.1606 18.0574 11.3595 18.1931 11.4823C18.2608 11.5437 18.3498 11.5743 18.4387 11.5743ZM16.7367 19.0856C16.7367 19.2591 16.5811 19.3999 16.3894 19.3999H13.6104C13.4187 19.3999 13.2631 19.2591 13.2631 19.0856C13.2631 18.9183 13.4081 18.7826 13.5905 18.7732C13.3742 17.0047 11.3525 16.6108 11.3525 14.5285C11.3525 12.7059 12.9855 11.2285 14.9999 11.2285C17.0143 11.2285 18.6473 12.7059 18.6473 14.5285C18.6473 16.6108 16.6256 17.0047 16.4093 18.7732C16.5917 18.7826 16.7367 18.9183 16.7367 19.0856ZM14.1994 12.11C14.1454 11.9895 13.9937 11.9315 13.86 11.9801C12.9723 12.3055 12.2993 13.0012 12.0598 13.841C12.0238 13.9672 12.1077 14.0955 12.247 14.1281C12.2687 14.1333 12.2906 14.1356 12.3121 14.1356C12.4282 14.1356 12.5339 14.0651 12.5643 13.9588C12.7627 13.263 13.3202 12.6866 14.0556 12.4171C14.189 12.3682 14.2532 12.2309 14.1994 12.11Z" fill="#DCBF85"/>
</svg>
