<svg width="30" height="30" viewBox="0 0 30 30" fill="none" xmlns="http://www.w3.org/2000/svg">
<circle cx="15" cy="15" r="15" fill="white"/>
<path d="M10.8557 17.3784H8.42505C8.25929 17.3784 8.10032 17.3126 7.98311 17.1954C7.8659 17.0782 7.80005 16.9192 7.80005 16.7534V13.0034C7.80005 12.8377 7.8659 12.6787 7.98311 12.5615C8.10032 12.4443 8.25929 12.3784 8.42505 12.3784H10.8557L14.1644 9.67093C14.2102 9.6334 14.2657 9.60964 14.3245 9.60243C14.3832 9.59521 14.4428 9.60484 14.4963 9.63018C14.5498 9.65552 14.595 9.69554 14.6267 9.74558C14.6583 9.79561 14.6751 9.85361 14.675 9.91281V19.8441C14.6751 19.9033 14.6583 19.9612 14.6267 20.0113C14.595 20.0613 14.5498 20.1013 14.4963 20.1267C14.4428 20.152 14.3832 20.1616 14.3245 20.1544C14.2657 20.1472 14.2102 20.1235 14.1644 20.0859L10.8557 17.3784ZM19.9338 14.8784L22.1438 17.0884L21.26 17.9722L19.05 15.7622L16.84 17.9722L15.9563 17.0884L18.1663 14.8784L15.9563 12.6684L16.84 11.7847L19.05 13.9947L21.26 11.7847L22.1438 12.6684L19.9338 14.8784Z" fill="#DCBF85"/>
</svg>
