<svg width="30" height="30" viewBox="0 0 30 30" fill="none" xmlns="http://www.w3.org/2000/svg">
<circle cx="15" cy="15" r="15" fill="#343D57"/>
<path d="M15.6493 21.6357C11.9828 21.6357 9 18.6833 9 15.0168C9 11.3979 11.9441 8.3999 15.563 8.3999H15.568C15.7215 8.3999 15.8619 8.45625 15.9307 8.59388C16.0002 8.73293 15.984 8.88454 15.8891 9.00757C15.095 10.0368 14.6754 11.2609 14.6754 12.5616C14.6754 15.7809 17.2946 18.3961 20.5139 18.3961L20.5887 18.3924C20.7359 18.3904 20.8877 18.4759 20.957 18.6154C20.9912 18.6834 21.0055 18.7597 20.9981 18.8355C20.9908 18.9113 20.9621 18.9835 20.9155 19.0437C19.6448 20.6912 17.7251 21.6357 15.6493 21.6357ZM14.7617 9.21756C11.9672 9.64889 9.81077 12.0842 9.81077 14.9866C9.81077 18.2057 12.43 20.8249 15.6493 20.8249C17.1983 20.8249 18.6479 20.2256 19.7336 19.1578C16.4333 18.7702 13.8646 15.9565 13.8646 12.5541C13.8646 11.3651 14.1727 10.2268 14.7617 9.21756Z" fill="white"/>
<path d="M15.9526 20.25C13.2894 20.25 11.0246 18.3485 10.5677 15.7283C10.5626 15.7019 10.5628 15.6747 10.5683 15.6483C10.5738 15.6219 10.5845 15.5969 10.5998 15.5748C10.6151 15.5526 10.6346 15.5337 10.6573 15.5191C10.68 15.5046 10.7054 15.4947 10.7319 15.4901C10.7585 15.4855 10.7857 15.4862 10.8119 15.4922C10.8382 15.4982 10.863 15.5094 10.8849 15.5251C10.9068 15.5408 10.9253 15.5607 10.9394 15.5837C10.9535 15.6067 10.9629 15.6322 10.967 15.6588C11.39 18.0842 13.4869 19.8446 15.9526 19.8446C16.0064 19.8446 16.0579 19.866 16.0959 19.904C16.1339 19.942 16.1553 19.9936 16.1553 20.0473C16.1553 20.1011 16.1339 20.1526 16.0959 20.1906C16.0579 20.2286 16.0064 20.25 15.9526 20.25ZM10.696 15.2913C10.5886 15.2913 10.4988 15.1916 10.4937 15.0832C10.4892 14.9893 10.4868 14.8866 10.4868 14.7915C10.4868 14.6794 10.5774 14.585 10.6895 14.585C10.8016 14.585 10.8922 14.6737 10.8922 14.7858C10.8922 14.8746 10.8946 14.9772 10.8987 15.0649C10.904 15.1768 10.8178 15.2913 10.7059 15.2913H10.696Z" fill="white"/>
<path d="M16.2114 12.1381C16.2114 12.1855 16.2208 12.2325 16.2389 12.2763C16.2571 12.3201 16.2837 12.3599 16.3172 12.3935C16.3508 12.427 16.3906 12.4536 16.4344 12.4718C16.4782 12.4899 16.5252 12.4992 16.5726 12.4992C16.6201 12.4992 16.667 12.4899 16.7108 12.4718C16.7547 12.4536 16.7945 12.427 16.828 12.3935C16.8616 12.3599 16.8882 12.3201 16.9063 12.2763C16.9245 12.2325 16.9338 12.1855 16.9338 12.1381C16.9338 12.0906 16.9245 12.0437 16.9063 11.9998C16.8882 11.956 16.8616 11.9162 16.828 11.8826C16.7945 11.8491 16.7547 11.8225 16.7108 11.8044C16.667 11.7862 16.6201 11.7769 16.5726 11.7769C16.5252 11.7769 16.4782 11.7862 16.4344 11.8044C16.3906 11.8225 16.3508 11.8491 16.3172 11.8826C16.2837 11.9162 16.2571 11.956 16.2389 11.9998C16.2208 12.0437 16.2114 12.0906 16.2114 12.1381Z" fill="white"/>
<path d="M18.5591 10.4042C18.5591 10.5 18.5971 10.5918 18.6649 10.6596C18.7326 10.7273 18.8245 10.7654 18.9203 10.7654C19.0161 10.7654 19.1079 10.7273 19.1757 10.6596C19.2434 10.5918 19.2815 10.5 19.2815 10.4042C19.2815 10.3084 19.2434 10.2165 19.1757 10.1488C19.1079 10.081 19.0161 10.043 18.9203 10.043C18.8245 10.043 18.7326 10.081 18.6649 10.1488C18.5971 10.2165 18.5591 10.3084 18.5591 10.4042Z" fill="white"/>
<path d="M17.7739 13.6395C17.7739 13.7353 17.812 13.8272 17.8797 13.8949C17.9475 13.9627 18.0393 14.0007 18.1351 14.0007C18.2309 14.0007 18.3228 13.9627 18.3905 13.8949C18.4583 13.8272 18.4963 13.7353 18.4963 13.6395C18.4963 13.5437 18.4583 13.4519 18.3905 13.3841C18.3228 13.3164 18.2309 13.2783 18.1351 13.2783C18.0393 13.2783 17.9475 13.3164 17.8797 13.3841C17.812 13.4519 17.7739 13.5437 17.7739 13.6395Z" fill="white"/>
</svg>
