<svg width="21" height="12" viewBox="0 0 21 12" fill="none" xmlns="http://www.w3.org/2000/svg">
<path d="M6.62706 11H9.23506L6.83506 6.936C7.98706 6.664 9.17106 5.656 9.17106 3.768C9.17106 1.784 7.81106 0.327999 5.58706 0.327999H0.595062V11H2.86706V7.176H4.53106L6.62706 11ZM6.85106 3.752C6.85106 4.648 6.16306 5.224 5.25106 5.224H2.86706V2.28H5.25106C6.16306 2.28 6.85106 2.856 6.85106 3.752ZM10.8763 6.744C10.8763 9.368 12.3963 11.192 15.6603 11.192C18.8923 11.192 20.4123 9.384 20.4123 6.728V0.327999H18.1083V6.664C18.1083 8.152 17.2923 9.176 15.6603 9.176C13.9963 9.176 13.1803 8.152 13.1803 6.664V0.327999H10.8763V6.744Z" fill="#848484"/>
</svg>
