<svg width="12" height="8" viewBox="0 0 12 8" fill="none" xmlns="http://www.w3.org/2000/svg">
<path d="M11.3086 3.87175C10.2729 1.77214 8.22263 0.351562 5.875 0.351562C3.52737 0.351562 1.47652 1.77313 0.441448 3.87195C0.397761 3.96175 0.375 4.06095 0.375 4.16156C0.375 4.26218 0.397761 4.36138 0.441448 4.45118C1.47709 6.55079 3.52737 7.97137 5.875 7.97137C8.22263 7.97137 10.2735 6.5498 11.3086 4.45098C11.3522 4.36119 11.375 4.26198 11.375 4.16137C11.375 4.06075 11.3522 3.96155 11.3086 3.87175ZM5.875 7.01889C5.3311 7.01889 4.79941 6.85131 4.34718 6.53733C3.89494 6.22335 3.54247 5.77708 3.33433 5.25496C3.12618 4.73283 3.07173 4.1583 3.17784 3.60401C3.28394 3.04972 3.54586 2.54058 3.93045 2.14096C4.31505 1.74134 4.80505 1.4692 5.3385 1.35894C5.87195 1.24869 6.42488 1.30528 6.92738 1.52155C7.42988 1.73782 7.85937 2.10406 8.16155 2.57396C8.46372 3.04387 8.625 3.59632 8.625 4.16147C8.62518 4.53676 8.55417 4.90841 8.41603 5.25517C8.27789 5.60193 8.07534 5.91701 7.81994 6.18238C7.56454 6.44775 7.26131 6.65822 6.92759 6.80176C6.59386 6.94529 6.23619 7.01908 5.875 7.01889ZM5.875 2.25651C5.71136 2.25889 5.54878 2.28419 5.39165 2.33172C5.52117 2.51461 5.58332 2.73967 5.56684 2.9661C5.55035 3.19252 5.45632 3.40531 5.3018 3.56587C5.14727 3.72643 4.94248 3.82414 4.72457 3.84127C4.50666 3.8584 4.29006 3.79381 4.11404 3.65923C4.01381 4.04292 4.03191 4.4496 4.16577 4.82205C4.29964 5.19449 4.54254 5.51394 4.86029 5.73542C5.17803 5.95691 5.55463 6.06929 5.93706 6.05673C6.31949 6.04418 6.68851 5.90733 6.99217 5.66545C7.29583 5.42356 7.51884 5.08882 7.62981 4.70834C7.74079 4.32786 7.73414 3.9208 7.61081 3.54445C7.48747 3.16811 7.25366 2.84142 6.94228 2.61038C6.63089 2.37934 6.25762 2.25558 5.875 2.25651Z" fill="#DCBF85"/>
</svg>
