<svg width="11" height="12" viewBox="0 0 11 12" fill="none" xmlns="http://www.w3.org/2000/svg">
<path d="M10.1172 3.88428H1.00781C0.865436 3.88428 0.75 3.76433 0.75 3.61639V2.81274C0.75 2.22095 1.2117 1.74121 1.78125 1.74121H2.8125V0.580383C2.8125 0.432445 2.92794 0.3125 3.07031 0.3125H3.92969C4.07206 0.3125 4.1875 0.432445 4.1875 0.580383V1.74121H6.9375V0.580383C6.9375 0.432445 7.05294 0.3125 7.19531 0.3125H8.05469C8.19706 0.3125 8.3125 0.432445 8.3125 0.580383V1.74121H9.34375C9.9133 1.74121 10.375 2.22095 10.375 2.81274V3.61639C10.375 3.76433 10.2596 3.88428 10.1172 3.88428ZM1.00781 4.59863H10.1172C10.2596 4.59863 10.375 4.71858 10.375 4.86652V10.6707C10.375 11.2625 9.9133 11.7422 9.34375 11.7422H1.78125C1.2117 11.7422 0.75 11.2625 0.75 10.6707V4.86652C0.75 4.71858 0.865436 4.59863 1.00781 4.59863ZM8.16847 6.74052L7.56328 6.10657C7.46301 6.00154 7.29977 6.00085 7.19869 6.10505L4.92055 8.45314L3.9327 7.41839C3.83243 7.31336 3.66917 7.31267 3.56808 7.41688L2.95799 8.04573C2.85691 8.14992 2.85624 8.31953 2.95653 8.42456L4.73116 10.2834C4.83143 10.3885 4.99467 10.3892 5.09575 10.2849L8.16701 7.11935C8.26809 7.01516 8.26876 6.84555 8.16847 6.74052Z" fill="#DCBF85"/>
</svg>
