<svg width="20" height="20" viewBox="0 0 20 20" fill="none" xmlns="http://www.w3.org/2000/svg">
<path d="M10.0006 6.08308C10.5758 6.08308 11.0422 5.61676 11.0422 5.04154C11.0422 4.46631 10.5758 4 10.0006 4C9.42539 4 8.95908 4.46631 8.95908 5.04154C8.95908 5.61676 9.42539 6.08308 10.0006 6.08308Z" fill="#DCBF85"/>
<path d="M8.65261 10.7294C8.72812 10.2591 8.76197 9.80451 8.63959 9.49023C8.53543 9.21995 8.3089 9.06866 8.03549 8.96555L5.62616 8.18596C5.3137 8.08181 5.0218 7.90735 5.00123 7.5626C4.9752 7.11995 5.36577 6.83352 5.75635 6.93768C5.75635 6.93768 8.04773 7.74851 10.0006 7.74851C11.9535 7.74851 14.2188 6.94132 14.2188 6.94132C14.6875 6.81113 15 7.17567 15 7.56078C15 7.93078 14.7136 8.06098 14.3751 8.18414L12.0837 9.01502C11.8754 9.09314 11.5369 9.24937 11.4067 9.4884C11.2505 9.76832 11.2765 10.2573 11.352 10.7276L11.5056 11.4991L12.4797 15.7668C12.5526 16.1092 12.3157 16.4292 11.9746 16.4891C11.6335 16.549 11.3546 16.3162 11.2536 15.985L10.2756 12.9664C10.2285 12.8216 10.1869 12.6752 10.1506 12.5271L10.0006 11.9157L9.86261 12.4794C9.81887 12.6591 9.76853 12.8369 9.71159 13.0127L8.75077 15.9824C8.64662 16.317 8.37321 16.5487 8.03211 16.4891C7.69101 16.4295 7.44885 16.0832 7.5254 15.7668L8.49898 11.5009L8.65261 10.7294Z" fill="#DCBF85"/>
<circle cx="10" cy="10" r="9" stroke="#DCBF85" stroke-width="2"/>
</svg>
