<svg width="80" height="80" viewBox="0 0 80 80" fill="none" xmlns="http://www.w3.org/2000/svg">
<rect x="1" y="1" width="78" height="78" rx="39" stroke="#DCBF85" stroke-width="2"/>
<path d="M62.5 23H17.5C16.1195 23 15 24.1195 15 25.5V55.5C15 56.8805 16.1195 58 17.5 58H62.5C63.8805 58 65 56.8805 65 55.5V25.5C65 24.1195 63.8805 23 62.5 23ZM28.75 46.1156V47.375C28.75 47.7203 28.4703 48 28.125 48H26.875C26.5297 48 26.25 47.7203 26.25 47.375V46.1023C25.368 46.057 24.5102 45.7492 23.7992 45.2156C23.4945 44.9867 23.4789 44.5305 23.7547 44.2672L24.6727 43.3914C24.8891 43.1852 25.2109 43.1758 25.4641 43.3344C25.7664 43.5234 26.1094 43.625 26.4656 43.625H28.6617C29.1695 43.625 29.5836 43.1625 29.5836 42.5945C29.5836 42.1297 29.3016 41.7203 28.8984 41.6L25.3828 40.5453C23.9305 40.1094 22.9156 38.7156 22.9156 37.1555C22.9156 35.2398 24.4039 33.6836 26.2492 33.6344V32.375C26.2492 32.0297 26.5289 31.75 26.8742 31.75H28.1242C28.4695 31.75 28.7492 32.0297 28.7492 32.375V33.6477C29.6313 33.693 30.4891 34 31.2 34.5344C31.5047 34.7633 31.5203 35.2195 31.2445 35.4828L30.3266 36.3586C30.1102 36.5648 29.7883 36.5742 29.5352 36.4156C29.2328 36.2258 28.8898 36.125 28.5336 36.125H26.3375C25.8297 36.125 25.4156 36.5875 25.4156 37.1555C25.4156 37.6203 25.6977 38.0297 26.1008 38.15L29.6164 39.2047C31.0688 39.6406 32.0836 41.0344 32.0836 42.5945C32.0836 44.5109 30.5953 46.0664 28.75 46.1156ZM47.5 44.875C47.5 45.2203 47.2203 45.5 46.875 45.5H38.125C37.7797 45.5 37.5 45.2203 37.5 44.875V43.625C37.5 43.2797 37.7797 43 38.125 43H46.875C47.2203 43 47.5 43.2797 47.5 43.625V44.875ZM60 44.875C60 45.2203 59.7203 45.5 59.375 45.5H53.125C52.7797 45.5 52.5 45.2203 52.5 44.875V43.625C52.5 43.2797 52.7797 43 53.125 43H59.375C59.7203 43 60 43.2797 60 43.625V44.875ZM60 37.375C60 37.7203 59.7203 38 59.375 38H38.125C37.7797 38 37.5 37.7203 37.5 37.375V36.125C37.5 35.7797 37.7797 35.5 38.125 35.5H59.375C59.7203 35.5 60 35.7797 60 36.125V37.375Z" fill="#DCBF85"/>
</svg>
