<svg width="80" height="80" viewBox="0 0 80 80" fill="none" xmlns="http://www.w3.org/2000/svg">
<path d="M40 15C26.1895 15 15 26.1895 15 40C15 53.8105 26.1895 65 40 65C53.8105 65 65 53.8105 65 40C65 26.1895 53.8105 15 40 15ZM45.7561 50.2923L36.8649 43.8306C36.5524 43.5988 36.371 43.2359 36.371 42.8528V25.8871C36.371 25.2218 36.9153 24.6774 37.5806 24.6774H42.4194C43.0847 24.6774 43.629 25.2218 43.629 25.8871V39.7681L50.0302 44.4254C50.5746 44.8185 50.6855 45.5746 50.2923 46.119L47.4496 50.0302C47.0564 50.5645 46.3004 50.6855 45.7561 50.2923Z" fill="#DCBF85"/>
<rect x="1" y="1" width="78" height="78" rx="39" stroke="#DCBF85" stroke-width="2"/>
</svg>
