<svg width="20" height="20" viewBox="0 0 20 20" fill="none" xmlns="http://www.w3.org/2000/svg">
<path d="M14.9995 15.4507C14.8721 13.2658 13.4253 11.448 11.469 10.8303C12.6539 10.2598 13.4768 9.0199 13.4768 7.58249C13.4768 5.60401 11.9198 4 9.99928 4C8.07878 4 6.52177 5.60401 6.52177 7.58249C6.52177 9.0199 7.34464 10.2598 8.531 10.8303C6.57472 11.448 5.12791 13.2658 5.00054 15.4507C4.99052 15.6202 5.12075 15.7647 5.28676 15.7647C5.43702 15.7647 5.56295 15.6438 5.57297 15.489C5.70892 13.0933 7.63944 11.1945 9.99928 11.1945C12.3591 11.1945 14.2896 13.0933 14.427 15.489C14.4356 15.6438 14.5616 15.7647 14.7132 15.7647C14.8792 15.7647 15.0095 15.6202 14.9995 15.4507ZM7.0942 7.58249C7.0942 5.92982 8.39505 4.58971 9.99928 4.58971C11.6035 4.58971 12.9044 5.92982 12.9044 7.58249C12.9044 9.23515 11.6035 10.5753 9.99928 10.5753C8.39505 10.5753 7.0942 9.23515 7.0942 7.58249Z" fill="white" stroke="white" stroke-width="0.5"/>
<circle cx="10" cy="10" r="9" stroke="white" stroke-width="2"/>
</svg>
