<?xml version="1.0" encoding="UTF-8"?>
<svg class="text-gray-700 dark:text-white fill-current"
     id="logo-layer" data-name="logo-layer" xmlns="http://www.w3.org/2000/svg" viewBox="0 0 609.58 184.25">
  <defs>
    <style>
      .cls-1 {
        fill: #dcbf85;
      }
      .cls-2 {
        fill: currentColor;
      }
    </style>
  </defs>
  <g id="logo1" data-name="logo1">
    <g>
      <g>
        <path class="cls-1" d="M183.49,90.3L93.96,.76c-1.01-1.01-2.65-1.01-3.66,0L.76,90.3c-1.01,1.01-1.01,2.65,0,3.66l89.54,89.54c1.01,1.01,2.65,1.01,3.66,0l89.54-89.54c1.01-1.01,1.01-2.65,0-3.66Zm-91.37,88.5L5.45,92.13,92.13,5.45l86.67,86.67-86.67,86.67Z"/>
        <path class="cls-1" d="M183.7,90.5L124.81,31.62c-.9-.9-2.35-.9-3.24,0l-58.89,58.89c-.9,.9-.9,2.35,0,3.24l29.44,29.44,3.26-3.26-27.8-27.8,55.61-55.61,55.61,55.61-58.87,58.87,1.64,1.64c.9,.9,2.35,.9,3.24,0l58.89-58.89c.9-.9,.9-2.35,0-3.24Zm-76.04,41.7l-3.26,3.26,3.26,3.26,3.26-3.26-3.26-3.26Z"/>
        <path class="cls-1" d="M145.82,83.69l-3.26,3.26,3.26,3.26,3.26-3.26-3.26-3.26Zm15.53-9.01l1.64-1.64c.9-.9,.9-2.35,0-3.24L109.28,16.08c-.9-.9-2.35-.9-3.24,0L31.62,90.5c-.9,.9-.9,2.35,0,3.24l44.98,44.98,3.26-3.26-43.34-43.34L107.66,20.99l53.69,53.69Z"/>
        <path class="cls-1" d="M121.57,90.5l-27.82-27.82c-.9-.9-2.35-.9-3.24,0l-27.82,27.82c-.9,.9-.9,2.35,0,3.24l1.64,1.64,27.8-27.8,24.54,24.54-55.61,55.61-27.8-27.8-1.64,1.64c-.9,.9-.9,2.35,0,3.24l27.82,27.82c.9,.9,2.35,.9,3.24,0l58.89-58.89c.9-.9,.9-2.35,0-3.24Zm-72.78,13.89l-3.26,3.26,3.26,3.26,3.26-3.26-3.26-3.26Z"/>
        <path class="cls-1" d="M48.79,104.4l-3.26,3.26,3.26,3.26,3.26-3.26-3.26-3.26Zm103.84-13.89l-43.35-43.35c-.9-.9-2.35-.9-3.24,0l-43.35,43.35c-.9,.9-.9,2.35,0,3.24l1.64,1.64,43.34-43.34,40.07,40.07-71.14,71.14-43.34-43.34-1.64,1.64c-.9,.9-.9,2.35,0,3.24l43.35,43.35c.9,.9,2.35,.9,3.24,0l74.42-74.42c.9-.9,.9-2.35,0-3.24Z"/>
      </g>
      <g>
        <path fill="currentColor" class="cls-2" d="M227.7,38.83h-17.61v-3.61h41.31v3.61h-17.68v43.25h-6.03V38.83Z"/>
        <path class="cls-2" d="M259.18,62.46v-27.25h6.03v27.12c0,10.71,5.69,16.81,14.93,16.81s15-6.63,15-16.94v-26.98h3.68v27.12c0,12.65-7.7,20.76-19.75,20.76s-19.89-8.1-19.89-20.62Z"/>
        <path class="cls-2" d="M313.55,35.21h14.86c11.25,0,18.14,5.15,18.14,13.66,0,6.56-4.42,11.05-11.52,12.59l16,20.62h-6.96l-15.4-19.62c-.4,.07-.87,.07-1.41,.07h-7.7v19.55h-6.03V35.21Zm14.86,24.17c7.77,0,12.32-3.95,12.32-10.38s-4.55-10.44-12.32-10.44h-8.84v20.82h8.84Z"/>
        <path class="cls-2" d="M360.22,35.21h6.03v21.63h7.36l18.08-21.63h4.22l-17.54,21.29,19.35,25.58h-7.23l-16.81-21.63h-7.43v21.63h-6.03V35.21Z"/>
        <path class="cls-2" d="M407.56,35.21h6.03v46.87h-6.03V35.21Z"/>
        <path class="cls-2" d="M424.1,66.75h3.62c1.21,8.1,7.43,13.12,16.34,13.12,7.83,0,12.86-3.15,12.86-8.91,0-6.69-6.63-8.3-14.26-9.91-8.03-1.81-17.34-3.95-17.34-13.39,0-8.84,8.04-13.46,17.61-13.46,10.31,0,18.01,5.76,19.01,15.93h-3.82c-1.07-7.97-6.76-12.65-15-12.65-6.96,0-12.32,3.21-12.32,8.97,0,6.36,6.56,7.77,13.93,9.44,8.77,1.94,17.81,4.08,17.81,13.86,0,8.7-7.43,13.32-18.21,13.32s-19.15-6.16-20.22-16.34Z"/>
        <path class="cls-2" d="M483.89,38.83h-17.61v-3.61h41.31v3.61h-17.68v43.25h-6.03V38.83Z"/>
        <path class="cls-2" d="M510.54,58.65c0-14.06,10.31-24.44,24.24-24.44s24.3,10.38,24.3,24.44-10.31,24.44-24.3,24.44-24.24-10.38-24.24-24.44Zm42.38,0c0-12.52-7.57-20.82-18.14-20.82s-18.15,8.3-18.15,20.82,7.57,20.82,18.15,20.82,18.14-8.37,18.14-20.82Z"/>
        <path class="cls-2" d="M570.68,35.21h6.23l29.19,38.36V35.21h3.48v47.34h-3.95l-31.4-41.04v40.57h-3.55V35.21Z"/>
        <path class="cls-2" d="M216.86,102.17h6.03v46.87h-6.03v-46.87Z"/>
        <path class="cls-2" d="M238.89,102.17h6.23l29.19,38.36v-38.36h3.48v47.34h-3.95l-31.4-41.04v40.57h-3.55v-46.87Z"/>
        <path class="cls-2" d="M287.03,102.17h6.43l17.01,41.85h.2l16.94-41.85h3.88l-19.08,46.87h-6.36l-19.01-46.87Z"/>
        <path class="cls-2" d="M340.67,102.17h27.65v3.28h-21.69v18.55h15.67v3.15h-15.67v18.55h24.57v3.35h-30.53v-46.87Z"/>
        <path class="cls-2" d="M375.68,133.71h3.62c1.21,8.1,7.43,13.12,16.34,13.12,7.83,0,12.86-3.15,12.86-8.91,0-6.69-6.63-8.3-14.26-9.91-8.03-1.81-17.34-3.95-17.34-13.39,0-8.84,8.04-13.46,17.61-13.46,10.31,0,18.01,5.76,19.01,15.93h-3.82c-1.07-7.97-6.76-12.65-15-12.65-6.96,0-12.32,3.21-12.32,8.97,0,6.36,6.56,7.77,13.93,9.44,8.77,1.94,17.81,4.08,17.81,13.86,0,8.7-7.43,13.33-18.21,13.33s-19.15-6.16-20.22-16.34Z"/>
        <path class="cls-2" d="M435.48,105.79h-17.61v-3.61h41.31v3.61h-17.68v43.25h-6.03v-43.25Z"/>
      </g>
    </g>
  </g>
</svg>
