<svg width="30" height="30" viewBox="0 0 30 30" fill="none" xmlns="http://www.w3.org/2000/svg">
<circle cx="15" cy="15" r="15" fill="white"/>
<path d="M18.35 17.75C19.3856 17.75 20.225 18.5894 20.225 19.625C20.225 20.6606 19.3856 21.5 18.35 21.5C17.3144 21.5 16.475 20.6606 16.475 19.625C16.475 18.5894 17.3144 17.75 18.35 17.75ZM12.1 15.25C13.4812 15.25 14.6 16.3688 14.6 17.75C14.6 19.1313 13.4812 20.25 12.1 20.25C10.7187 20.25 9.59998 19.1313 9.59998 17.75C9.59998 16.3688 10.7187 15.25 12.1 15.25ZM17.4125 9C19.3112 9 20.85 10.5387 20.85 12.4375C20.85 14.3363 19.3112 15.875 17.4125 15.875C15.5137 15.875 13.975 14.3363 13.975 12.4375C13.975 10.5387 15.5137 9 17.4125 9Z" fill="#DCBF85"/>
</svg>
