<svg width="30" height="30" viewBox="0 0 30 30" fill="none" xmlns="http://www.w3.org/2000/svg">
<circle cx="15" cy="15" r="15" fill="white"/>
<path d="M15.6493 21.6357C11.9828 21.6357 9 18.6833 9 15.0168C9 11.3979 11.9441 8.3999 15.563 8.3999H15.568C15.7215 8.3999 15.8619 8.45625 15.9307 8.59388C16.0002 8.73293 15.984 8.88454 15.8891 9.00757C15.095 10.0368 14.6754 11.2609 14.6754 12.5616C14.6754 15.7809 17.2946 18.3961 20.5139 18.3961L20.5887 18.3924C20.7359 18.3904 20.8877 18.4759 20.957 18.6154C20.9912 18.6834 21.0055 18.7597 20.9981 18.8355C20.9908 18.9113 20.9621 18.9835 20.9155 19.0437C19.6448 20.6912 17.7251 21.6357 15.6493 21.6357ZM14.7617 9.21756C11.9672 9.64889 9.81077 12.0842 9.81077 14.9866C9.81077 18.2057 12.43 20.8249 15.6493 20.8249C17.1983 20.8249 18.6479 20.2256 19.7336 19.1578C16.4333 18.7702 13.8646 15.9565 13.8646 12.5541C13.8646 11.3651 14.1727 10.2268 14.7617 9.21756Z" fill="#DCBF85"/>
<path d="M15.9525 20.25C13.2893 20.25 11.0244 18.3485 10.5676 15.7283C10.5624 15.7019 10.5626 15.6747 10.5682 15.6483C10.5737 15.6219 10.5844 15.5969 10.5997 15.5748C10.615 15.5526 10.6345 15.5337 10.6572 15.5191C10.6799 15.5046 10.7052 15.4947 10.7318 15.4901C10.7583 15.4855 10.7855 15.4862 10.8118 15.4922C10.8381 15.4982 10.8629 15.5094 10.8847 15.5251C10.9066 15.5408 10.9252 15.5607 10.9393 15.5837C10.9534 15.6067 10.9628 15.6322 10.9669 15.6588C11.3899 18.0842 13.4867 19.8446 15.9525 19.8446C16.0062 19.8446 16.0578 19.866 16.0958 19.904C16.1338 19.942 16.1552 19.9936 16.1552 20.0473C16.1552 20.1011 16.1338 20.1526 16.0958 20.1906C16.0578 20.2286 16.0062 20.25 15.9525 20.25ZM10.6959 15.2913C10.5884 15.2913 10.4987 15.1916 10.4936 15.0832C10.4891 14.9893 10.4867 14.8866 10.4867 14.7915C10.4867 14.6794 10.5773 14.585 10.6894 14.585C10.8015 14.585 10.8921 14.6737 10.8921 14.7858C10.8921 14.8746 10.8945 14.9772 10.8986 15.0649C10.9038 15.1768 10.8177 15.2913 10.7058 15.2913H10.6959Z" fill="#DCBF85"/>
<path d="M16.2115 12.1381C16.2115 12.1855 16.2209 12.2325 16.239 12.2763C16.2572 12.3201 16.2838 12.3599 16.3173 12.3935C16.3509 12.427 16.3907 12.4536 16.4345 12.4718C16.4783 12.4899 16.5253 12.4992 16.5727 12.4992C16.6202 12.4992 16.6671 12.4899 16.711 12.4718C16.7548 12.4536 16.7946 12.427 16.8281 12.3935C16.8617 12.3599 16.8883 12.3201 16.9064 12.2763C16.9246 12.2325 16.9339 12.1855 16.9339 12.1381C16.9339 12.0906 16.9246 12.0437 16.9064 11.9998C16.8883 11.956 16.8617 11.9162 16.8281 11.8826C16.7946 11.8491 16.7548 11.8225 16.711 11.8044C16.6671 11.7862 16.6202 11.7769 16.5727 11.7769C16.5253 11.7769 16.4783 11.7862 16.4345 11.8044C16.3907 11.8225 16.3509 11.8491 16.3173 11.8826C16.2838 11.9162 16.2572 11.956 16.239 11.9998C16.2209 12.0437 16.2115 12.0906 16.2115 12.1381Z" fill="#DCBF85"/>
<path d="M18.5591 10.4042C18.5591 10.5 18.5971 10.5918 18.6649 10.6596C18.7326 10.7273 18.8245 10.7654 18.9203 10.7654C19.0161 10.7654 19.1079 10.7273 19.1757 10.6596C19.2434 10.5918 19.2815 10.5 19.2815 10.4042C19.2815 10.3084 19.2434 10.2165 19.1757 10.1488C19.1079 10.081 19.0161 10.043 18.9203 10.043C18.8245 10.043 18.7326 10.081 18.6649 10.1488C18.5971 10.2165 18.5591 10.3084 18.5591 10.4042Z" fill="#DCBF85"/>
<path d="M17.7738 13.6395C17.7738 13.7353 17.8119 13.8272 17.8796 13.8949C17.9473 13.9627 18.0392 14.0007 18.135 14.0007C18.2308 14.0007 18.3227 13.9627 18.3904 13.8949C18.4581 13.8272 18.4962 13.7353 18.4962 13.6395C18.4962 13.5437 18.4581 13.4519 18.3904 13.3841C18.3227 13.3164 18.2308 13.2783 18.135 13.2783C18.0392 13.2783 17.9473 13.3164 17.8796 13.3841C17.8119 13.4519 17.7738 13.5437 17.7738 13.6395Z" fill="#DCBF85"/>
</svg>
