<svg width="30" height="30" viewBox="0 0 30 30" fill="none" xmlns="http://www.w3.org/2000/svg">
<circle cx="15" cy="15" r="15" fill="white"/>
<g clip-path="url(#clip0_157_817)">
<path d="M11.4807 17.7998H9.05005C8.88429 17.7998 8.72532 17.734 8.60811 17.6168C8.4909 17.4995 8.42505 17.3406 8.42505 17.1748V13.4248C8.42505 13.2591 8.4909 13.1001 8.60811 12.9829C8.72532 12.8657 8.88429 12.7998 9.05005 12.7998H11.4807L14.7894 10.0923C14.8352 10.0548 14.8907 10.031 14.9495 10.0238C15.0082 10.0166 15.0678 10.0262 15.1213 10.0516C15.1748 10.0769 15.22 10.1169 15.2517 10.167C15.2833 10.217 15.3001 10.275 15.3 10.3342V20.2654C15.3001 20.3246 15.2833 20.3826 15.2517 20.4327C15.22 20.4827 15.1748 20.5227 15.1213 20.5481C15.0678 20.5734 15.0082 20.583 14.9495 20.5758C14.8907 20.5686 14.8352 20.5449 14.7894 20.5073L11.4807 17.7998ZM19.9288 20.3836L19.0438 19.4986C19.6363 18.9714 20.1103 18.3246 20.4346 17.6009C20.7588 16.8771 20.926 16.0929 20.925 15.2998C20.9258 14.4661 20.7409 13.6427 20.3837 12.8894C20.0265 12.1361 19.506 11.4718 18.86 10.9448L19.7475 10.0573C20.5091 10.702 21.1208 11.5051 21.5401 12.4106C21.9593 13.316 22.176 14.302 22.175 15.2998C22.175 17.3142 21.3088 19.1261 19.9288 20.3836ZM17.7144 18.1692L16.8257 17.2804C17.1291 17.0471 17.3748 16.7472 17.5437 16.4037C17.7127 16.0603 17.8004 15.6826 17.8 15.2998C17.8 14.4061 17.3313 13.6217 16.625 13.1798L17.5244 12.2804C17.9978 12.6287 18.3826 13.0835 18.6477 13.608C18.9127 14.1326 19.0505 14.7121 19.05 15.2998C19.05 16.4511 18.5313 17.4811 17.7144 18.1692Z" fill="#DCBF85"/>
</g>
<defs>
<clipPath id="clip0_157_817">
<rect width="15" height="15" fill="white" transform="translate(7.80005 7.7998)"/>
</clipPath>
</defs>
</svg>
