<svg width="20" height="20" viewBox="0 0 20 20" fill="none" xmlns="http://www.w3.org/2000/svg">
<path d="M10.0006 6.08308C10.5758 6.08308 11.0421 5.61676 11.0421 5.04154C11.0421 4.46631 10.5758 4 10.0006 4C9.42538 4 8.95907 4.46631 8.95907 5.04154C8.95907 5.61676 9.42538 6.08308 10.0006 6.08308Z" fill="white"/>
<path d="M8.65261 10.7293C8.72812 10.259 8.76197 9.80439 8.63959 9.4901C8.53543 9.21983 8.3089 9.06854 8.03549 8.96543L5.62616 8.18584C5.3137 8.08168 5.0218 7.90723 5.00123 7.56248C4.9752 7.11982 5.36577 6.8334 5.75635 6.93755C5.75635 6.93755 8.04773 7.74839 10.0006 7.74839C11.9535 7.74839 14.2188 6.9412 14.2188 6.9412C14.6875 6.81101 15 7.17555 15 7.56065C15 7.93066 14.7136 8.06085 14.3751 8.18402L12.0837 9.0149C11.8754 9.09302 11.5369 9.24925 11.4067 9.48828C11.2505 9.76819 11.2765 10.2572 11.352 10.7275L11.5056 11.499L12.4797 15.7667C12.5526 16.1091 12.3157 16.4291 11.9746 16.489C11.6335 16.5489 11.3546 16.3161 11.2536 15.9849L10.2756 12.9662C10.2285 12.8215 10.1869 12.675 10.1506 12.527L10.0006 11.9156L9.86261 12.4793C9.81887 12.659 9.76853 12.8367 9.71159 13.0126L8.75077 15.9823C8.64662 16.3169 8.37321 16.5486 8.03211 16.489C7.69101 16.4294 7.44885 16.083 7.5254 15.7667L8.49898 11.5008L8.65261 10.7293Z" fill="white"/>
<circle cx="10" cy="10" r="9" stroke="white" stroke-width="2"/>
</svg>
