<svg width="30" height="30" viewBox="0 0 30 30" fill="none" xmlns="http://www.w3.org/2000/svg">
<circle cx="15" cy="15" r="15" fill="white"/>
<path d="M8.48273 14.34C8.48273 18.54 11.6827 21.26 15.5827 21.26C18.0027 21.26 19.9027 20.26 21.2627 18.74V13.64H14.9027V16.08H18.4627V17.7C17.8827 18.22 16.8027 18.72 15.5827 18.72C13.1627 18.72 11.4027 16.86 11.4027 14.34C11.4027 11.82 13.1627 9.96 15.5827 9.96C16.9827 9.96 18.1227 10.7 18.7427 11.64L21.1027 10.36C20.0827 8.78 18.3427 7.44 15.5827 7.44C11.6827 7.44 8.48273 10.12 8.48273 14.34Z" fill="#464646"/>
</svg>
