<svg width="30" height="30" viewBox="0 0 30 30" fill="none" xmlns="http://www.w3.org/2000/svg">
<circle cx="15" cy="15" r="15" fill="white"/>
<path d="M11.425 9H18.925C19.0908 9 19.2498 9.06585 19.367 9.18306C19.4842 9.30027 19.55 9.45924 19.55 9.625V20.875C19.55 21.0408 19.4842 21.1997 19.367 21.3169C19.2498 21.4342 19.0908 21.5 18.925 21.5H11.425C11.2593 21.5 11.1003 21.4342 10.9831 21.3169C10.8659 21.1997 10.8 21.0408 10.8 20.875V9.625C10.8 9.45924 10.8659 9.30027 10.9831 9.18306C11.1003 9.06585 11.2593 9 11.425 9ZM15.175 18.375C15.0093 18.375 14.8503 18.4408 14.7331 18.5581C14.6159 18.6753 14.55 18.8342 14.55 19C14.55 19.1658 14.6159 19.3247 14.7331 19.4419C14.8503 19.5592 15.0093 19.625 15.175 19.625C15.3408 19.625 15.4998 19.5592 15.617 19.4419C15.7342 19.3247 15.8 19.1658 15.8 19C15.8 18.8342 15.7342 18.6753 15.617 18.5581C15.4998 18.4408 15.3408 18.375 15.175 18.375Z" fill="#DCBF85"/>
</svg>
